<?xml version="1.0" encoding="UTF-8"?>
<svg id="Layer_1" data-name="Layer 1" xmlns="http://www.w3.org/2000/svg" viewBox="0 0 117.23 87.79">
  <defs>
    <style>
      .cls-1 {
        fill: #201e23;
      }
    </style>
  </defs>
  <path class="cls-1" d="M32.02,21.45c-1.09-1.19-2.28-1.79-3.58-1.79-.6,0-1.21,.23-1.84,.68-.63,.46-.95,1.07-.95,1.84,0,.56,.28,1.04,.84,1.42,.56,.39,1.7,.93,3.42,1.63,1.47,.6,2.63,1.37,3.48,2.32,.84,.95,1.26,2.19,1.26,3.74,0,3.09-1.15,5.65-3.45,7.69-2.3,2.04-5.03,3.05-8.19,3.05-1.79,0-3.42-.38-4.87-1.13-1.46-.75-2.64-1.82-3.56-3.19l4.11-4.37c.63,.84,1.35,1.55,2.16,2.13,.81,.58,1.76,.87,2.84,.87,.95,0,1.76-.32,2.42-.97,.67-.65,1-1.41,1-2.29,0-.46-.17-.88-.5-1.26-.33-.39-.9-.77-1.71-1.16-2.21-.88-3.69-1.59-4.42-2.13-.74-.54-1.28-1.17-1.63-1.87-.35-.7-.53-1.51-.53-2.42,0-2.56,.93-4.83,2.79-6.79,1.86-1.97,4.14-2.95,6.85-2.95,1.58,0,3.08,.24,4.5,.71,1.42,.47,2.55,1.13,3.4,1.97l-3.84,4.27Z"/>
  <path class="cls-1" d="M47.77,15.34l-4.11,25.86h-7.37l4.11-25.86h7.37Zm-5.4-7.53c-.68-.7-1.03-1.56-1.03-2.58,0-1.26,.53-2.43,1.58-3.5,1.05-1.07,2.25-1.61,3.58-1.61,1.12,0,2.02,.35,2.69,1.05,.67,.7,1,1.55,1,2.53,0,1.37-.52,2.57-1.55,3.61s-2.22,1.55-3.56,1.55c-1.12,0-2.03-.35-2.71-1.05Z"/>
  <path class="cls-1" d="M71.32,1.49l-2.54,16.22h-.11c-.67-1.02-1.6-1.81-2.79-2.37-1.19-.56-2.46-.84-3.79-.84-2.56,0-4.94,.78-7.14,2.34-2.19,1.56-3.92,3.61-5.16,6.14-1.25,2.53-1.87,5.14-1.87,7.85,0,3.37,.92,6.08,2.76,8.14,1.84,2.05,4.22,3.08,7.14,3.08,1.33,0,2.69-.28,4.06-.84,1.37-.56,2.51-1.37,3.42-2.42h.1l-.37,2.42h7.37L78.69,1.49h-7.37Zm-5.62,31.41c-1.49,1.74-3.2,2.61-5.14,2.61-1.47,0-2.69-.57-3.63-1.71-.95-1.14-1.42-2.55-1.42-4.24,0-2.11,.74-4.06,2.21-5.85,1.47-1.79,3.18-2.69,5.11-2.69,1.58,0,2.83,.57,3.74,1.71,.91,1.14,1.37,2.55,1.37,4.24,0,2.21-.75,4.19-2.24,5.92Z"/>
  <path class="cls-1" d="M101.16,29.45h-17.01c-.11,.77-.16,1.32-.16,1.63,0,1.68,.33,2.99,1,3.92,.67,.93,1.72,1.4,3.16,1.4,1.23,0,2.29-.32,3.19-.97,.9-.65,1.68-1.5,2.34-2.55l6.64,1.11c-1.34,2.6-3.16,4.59-5.48,5.98s-4.85,2.08-7.58,2.08c-3.37,0-6.04-.97-8-2.92-1.97-1.95-2.95-4.57-2.95-7.87,0-2.49,.55-5.06,1.66-7.72,1.11-2.65,2.81-4.82,5.11-6.5,2.3-1.68,5.03-2.53,8.19-2.53s5.85,.94,7.64,2.82c1.79,1.88,2.69,4.54,2.69,7.98,0,.56-.03,1.17-.08,1.82-.05,.65-.17,1.43-.34,2.34Zm-6.21-4.58c0-1.69-.38-2.98-1.13-3.87-.76-.9-1.75-1.34-2.98-1.34-1.16,0-2.28,.45-3.37,1.34-1.09,.9-1.88,2.19-2.37,3.87h9.85Z"/>
  <path class="cls-1" d="M20.59,50.62l.37-2.37h7.37l-6.27,39.66h-7.37l2.53-16.22h-.11c-.91,1.05-2.05,1.86-3.42,2.42s-2.72,.84-4.06,.84c-2.95,0-5.34-1.03-7.16-3.08-1.83-2.05-2.74-4.77-2.74-8.14,0-2.7,.64-5.33,1.92-7.87,1.28-2.55,3-4.59,5.16-6.14,2.16-1.54,4.52-2.32,7.08-2.32,1.33,0,2.61,.28,3.82,.84,1.21,.56,2.13,1.35,2.76,2.37h.11Zm-5.95,3.32c-1.93,0-3.63,.9-5.11,2.69-1.47,1.79-2.21,3.74-2.21,5.85,0,1.69,.47,3.1,1.4,4.24,.93,1.14,2.15,1.71,3.66,1.71,1.9,0,3.6-.89,5.11-2.66,1.51-1.77,2.26-3.75,2.26-5.92,0-1.69-.47-3.09-1.4-4.21-.93-1.12-2.17-1.68-3.71-1.68Z"/>
  <path class="cls-1" d="M39.5,48.25l-2,12.8c-.28,1.55-.42,2.83-.42,3.84,0,2.56,1.12,3.84,3.37,3.84,1.47,0,2.64-.54,3.5-1.63,.86-1.09,1.45-2.69,1.76-4.79l2.21-14.06h7.37l-2.42,15.22c-1.26,7.65-5.74,11.48-13.43,11.48-3.34,0-5.84-.73-7.5-2.19-1.67-1.46-2.5-3.59-2.5-6.4,0-.6,.1-1.61,.29-3.03,.19-1.42,.5-3.41,.92-5.98l1.47-9.11h7.37Z"/>
  <path class="cls-1" d="M79.84,62.37h-17.01c-.11,.77-.16,1.32-.16,1.63,0,1.68,.33,2.99,1,3.92,.67,.93,1.72,1.4,3.16,1.4,1.23,0,2.29-.32,3.19-.97,.9-.65,1.68-1.5,2.34-2.55l6.64,1.11c-1.34,2.6-3.16,4.59-5.48,5.98s-4.85,2.08-7.58,2.08c-3.37,0-6.04-.97-8-2.92-1.97-1.95-2.95-4.57-2.95-7.87,0-2.49,.55-5.06,1.66-7.72,1.11-2.65,2.81-4.82,5.11-6.5,2.3-1.68,5.03-2.53,8.19-2.53s5.85,.94,7.64,2.82c1.79,1.88,2.69,4.54,2.69,7.98,0,.56-.03,1.17-.08,1.82-.05,.65-.17,1.43-.34,2.34Zm-6.21-4.58c0-1.69-.38-2.98-1.13-3.87-.76-.9-1.75-1.34-2.98-1.34-1.16,0-2.28,.45-3.37,1.34-1.09,.9-1.88,2.19-2.37,3.87h9.85Z"/>
  <path class="cls-1" d="M96.48,54.36c-1.09-1.19-2.28-1.79-3.58-1.79-.6,0-1.21,.23-1.84,.68-.63,.46-.95,1.07-.95,1.84,0,.56,.28,1.04,.84,1.42,.56,.39,1.7,.93,3.42,1.63,1.47,.6,2.63,1.37,3.48,2.32,.84,.95,1.26,2.19,1.26,3.74,0,3.09-1.15,5.65-3.45,7.69-2.3,2.04-5.03,3.05-8.19,3.05-1.79,0-3.42-.38-4.87-1.13-1.46-.75-2.64-1.82-3.56-3.19l4.11-4.37c.63,.84,1.35,1.55,2.16,2.13,.81,.58,1.76,.87,2.84,.87,.95,0,1.76-.32,2.42-.97,.67-.65,1-1.41,1-2.29,0-.46-.17-.88-.5-1.26-.33-.39-.9-.77-1.71-1.16-2.21-.88-3.69-1.59-4.42-2.13-.74-.54-1.28-1.17-1.63-1.87-.35-.7-.53-1.51-.53-2.42,0-2.56,.93-4.83,2.79-6.79,1.86-1.97,4.14-2.95,6.85-2.95,1.58,0,3.08,.24,4.5,.71,1.42,.47,2.55,1.13,3.4,1.97l-3.84,4.27Z"/>
  <path class="cls-1" d="M114.12,39.51l-1.37,8.74h4.53l-1,6.21h-4.53l-3.11,19.64h-7.37l3.11-19.64h-2.53l1-6.21h2.53l1.37-8.74h7.37Z"/>
  <g>
    <path class="cls-1" d="M7.06,32.83c-1.47,0-2.76,.56-3.84,1.69-1.09,1.13-1.63,2.38-1.63,3.76,0,1.09,.37,2.03,1.11,2.8,.74,.78,1.7,1.16,2.9,1.16,1.44,0,2.71-.57,3.82-1.72,1.11-1.15,1.66-2.43,1.66-3.84,0-1.09-.37-2.01-1.11-2.75-.74-.74-1.7-1.11-2.9-1.11Z"/>
    <polygon class="cls-1" points="6.57 1.5 3.79 29.7 11.27 29.77 17.56 1.49 6.57 1.5"/>
  </g>
</svg>
