<?xml version="1.0" encoding="UTF-8"?>
<svg id="Layer_1" data-name="Layer 1" xmlns="http://www.w3.org/2000/svg" viewBox="0 0 340.72 87.92">
  <path d="M14.41,29.84c0,3.29,2.71,5.32,7.64,8.42l5.42,3.19c3.1,1.93,6.87,4.84,6.87,10.54,0,9.87-9.29,17.51-18.86,17.51C7.54,69.49,1.93,64.66,0,58.28l9.19-6.09c1.84,8.61,5.8,12.77,10.93,12.77,3.97,0,6.77-2.71,6.77-6.77,0-2.9-2.03-5.13-5.9-7.54l-7.35-4.16c-3.39-2.22-7.93-5.22-7.93-10.74,0-9.77,9.87-16.64,22.15-16.64,3.68,0,7.83,.77,10.06,1.74l-3.96,14.22c-2.71-7.16-7.16-11.22-12.96-11.22-4.16,0-6.58,2.42-6.58,6Z"/>
  <path d="M41.58,54.02l2.42-14.9c.48-3.19,1.16-7.16,1.16-10.06,0-1.84-.19-3.68-.68-5.32,4.45-1.35,8.71-2.8,13.06-4.74l-5.9,35.3c-.48,2.71-.87,5.22-.87,7.84,0,1.93,.19,3.87,.68,6.29h-14.51c2.9-5.61,3.77-9.19,4.64-14.41Zm5.32-45.27c0-4.55,3.77-8.32,8.42-8.32,3.77,0,6.19,2.42,6.19,5.8,0,4.55-3.87,8.32-8.51,8.32-3.77,0-6.09-2.51-6.09-5.8Z"/>
  <path d="M96.23,53.83c-.48,2.8-.68,5.13-.68,7.64,0,2.13,.19,4.35,.58,6.96h-10.45c-.48-1.16-.78-3.39-.78-5.03v-.48c-3.48,4.16-7.64,6.19-12.28,6.19-7.45,0-12.67-5.51-12.67-16.06,0-16.15,10.25-33.85,25.44-33.85,2.61,0,4.74,.58,6.39,1.74l.29-1.64c.48-3.1,.97-6.38,.97-9.19,0-1.94-.29-3.68-.78-5.22,4.45-1.26,8.8-2.8,13.06-4.74l-9.09,53.68Zm-6.19-24.18c0-5.13-2.61-6.87-5.51-6.87-9,0-13.35,16.64-13.35,27.08,0,8.32,3.39,11.9,8.8,11.9,1.84,0,3.58-.48,5.13-1.45l4.64-27.28c.19-.97,.29-2.42,.29-3.39Z"/>
  <path d="M143.24,32.55c0,1.45-.1,2.9-.39,4.45l-1.16,6.96h-26.12c-.1,1.06-.1,2.22-.1,3.19,0,8.51,3.68,13.25,12.67,13.25,4.35,0,7.35-1.16,10.93-3.48-2.03,6.38-8.32,12.67-17.89,12.67-10.16,0-16.44-7.25-16.44-18.76,0-16.06,10.06-31.92,24.95-31.92,9.67,0,13.54,6,13.54,13.64Zm-10.06-1.74c0-5.71-2.13-8.32-5.61-8.32-6.48,0-10.45,9.86-11.61,18.76h12.19c3.19,0,3.77-.48,4.45-4.74,.39-2.22,.58-4.16,.58-5.71Z"/>
  <path d="M173.6,74.72v-11.51c-2.71,3.97-6.39,5.9-10.93,5.9-8.51,0-15.86-7.54-15.86-22.34,0-18.86,10.64-27.66,20.6-27.66,4.06,0,6.77,1.26,9.09,3.96,3-1.26,5.9-2.71,9-4.35v56c0,5.22,.19,7.45,2.23,13.06h-16.35c1.93-5.61,2.23-7.84,2.23-13.06Zm0-14.7v-25.63c-.1-7.93-2.9-11.12-6.39-11.12-5.03,0-7.93,5.22-7.93,18.47s3.87,19.25,10.35,19.25c1.55,0,2.81-.29,3.97-.97Z"/>
  <path d="M219.54,68.43c-.87-1.64-1.64-4.84-1.93-7.35-3.19,5.51-8.12,8.22-13.25,8.22-6.97,0-10.83-4.55-10.83-13.64v-17.12c0-4.93-.1-9-2.22-14.22,4.83-1.64,9.57-3.29,14.22-5.42V53.83c0,3.77,.77,7.54,5.51,7.54,1.93,0,4.25-.68,6.48-3.19v-19.73c0-4.84-.1-10.06-1.74-14.22,4.74-1.55,9.09-3.19,13.73-5.42V53.63c0,5.61,.29,9.19,2.23,14.8h-12.19Z"/>
  <path d="M273.32,44.15h-25.44c.87,9.19,4.64,14.99,14.99,14.99,4.35,0,7.16-1.06,10.16-2.9-.97,6.09-6.19,13.44-16.64,13.44-12.09,0-20.51-10.06-20.51-25.05,0-14.02,6.96-25.82,20.8-25.82,11.61,0,16.64,8.41,16.64,18.28v7.06Zm-12.19-6.96c0-10.16-2.51-14.12-6.29-14.12-4.35,0-7.16,5.03-7.16,16.06v2.13h9.96c3,0,3.48-.39,3.48-4.06Z"/>
  <path d="M286.85,28.1c0,3.29,3.1,5.51,9.67,9.38l5.61,3.29c3.68,2.13,8.61,5.9,8.61,13.15,0,9.09-7.54,15.67-16.54,15.67-8.32,0-14.8-5.13-17.89-11.12l8.51-6.87c4.55,8.9,9.29,12.77,13.74,12.77,2.61,0,4.64-1.45,4.64-4.45s-2.03-5.32-7.25-8.32l-7.93-4.45c-5.32-3.19-10.06-6.48-10.06-12.96,0-8.22,7.16-15.19,20.02-15.28,4.16,0,8.51,.87,10.83,1.84l-1.64,15.57c-3.87-7.06-10.06-11.99-15.86-11.99-2.71,0-4.45,1.45-4.45,3.77Z"/>
  <path d="M334.44,59.92c2.13,0,3.96-.97,6-2.52,0,6.48-5.32,12.09-12.57,12.09-5.9,0-10.25-3.87-10.25-13.25V23.16h-5.51l.48-3.39h5.03c-.1-2.13-.19-4.55-.48-7.84,4.35-1.64,8.51-3.77,12.48-6.19v14.03h11.12l-.48,3.39h-10.64v29.02c0,2.42,0,7.74,4.84,7.74Z"/>
</svg>